<?xml version="1.0" encoding="UTF-8" standalone="no"?>
<!DOCTYPE svg PUBLIC "-//W3C//DTD SVG 1.1//EN" "http://www.w3.org/Graphics/SVG/1.1/DTD/svg11.dtd">
<svg width="100%" height="100%" viewBox="0 0 260 81" version="1.1" xmlns="http://www.w3.org/2000/svg" xmlns:xlink="http://www.w3.org/1999/xlink" xml:space="preserve" xmlns:serif="http://www.serif.com/" style="fill-rule:evenodd;clip-rule:evenodd;stroke-linejoin:round;stroke-miterlimit:2;">
    <g transform="matrix(0.75,0,0,0.75,-458.476,4.26326e-14)">
        <g transform="matrix(0.616376,0,0,1.58911,611.345,0)">
            <g transform="matrix(7.2902,0,0,0.874459,-39323.4,-201.126)">
                <path d="M5471,230L5394,230L5394,307L5467.44,307L5471,295.486L5471,230ZM5470.7,230.959L5470.7,295.089C5470.7,295.089 5467.32,306.04 5467.32,306.04C5467.32,306.04 5394.3,306.04 5394.3,306.04C5394.3,306.04 5394.3,230.959 5394.3,230.959C5399.48,230.96 5470.7,230.96 5470.7,230.96L5470.7,230.959Z"/>
            </g>
        </g>
    </g>
</svg>
