<?xml version="1.0" encoding="UTF-8" standalone="no"?>
<!DOCTYPE svg PUBLIC "-//W3C//DTD SVG 1.1//EN" "http://www.w3.org/Graphics/SVG/1.1/DTD/svg11.dtd">
<svg width="100%" height="100%" viewBox="0 0 421 81" version="1.1" xmlns="http://www.w3.org/2000/svg" xmlns:xlink="http://www.w3.org/1999/xlink" xml:space="preserve" xmlns:serif="http://www.serif.com/" style="fill-rule:evenodd;clip-rule:evenodd;stroke-linejoin:round;stroke-miterlimit:2;">
    <g transform="matrix(0.75,0,0,0.75,-0.5,-161.125)">
        <g transform="matrix(0.997604,0,0,1.58911,0.672619,214.833)">
            <g transform="matrix(7.29035,0,0,0.874459,-39324.2,-201.126)">
                <path d="M5471,230L5394,230L5394,289.009L5397.44,307L5468.8,307L5471,295.486L5471,230Z"/>
                <path d="M5471,230L5394,230L5394,289.009L5397.44,307L5468.8,307L5471,295.486L5471,230ZM5470.82,230.959L5470.82,295.089C5470.82,295.089 5468.72,306.04 5468.72,306.04C5468.72,306.04 5397.51,306.04 5397.51,306.04C5397.51,306.04 5394.18,288.612 5394.18,288.612C5394.18,288.612 5394.18,230.959 5394.18,230.959C5398.31,230.96 5470.82,230.96 5470.82,230.96L5470.82,230.959Z"/>
            </g>
        </g>
    </g>
</svg>
